<svg width="16" height="16" viewBox="0 0 16 16" fill="#000000" xmlns="http://www.w3.org/2000/svg">
<path d="M10.3535 6.35352L6.35352 10.3535L5.64648 9.64648L9.64648 5.64648L10.3535 6.35352Z"/>
<path d="M8.64648 2.6465C9.94632 1.34667 12.0537 1.34667 13.3535 2.6465C14.6533 3.94634 14.6533 6.0537 13.3535 7.35354L11 9.70705L10.293 9.00002L12.6465 6.6465C13.5558 5.7372 13.5558 4.26284 12.6465 3.35354C11.7372 2.44423 10.2628 2.44423 9.35352 3.35354L7 5.70705L6.29297 5.00002L8.64648 2.6465Z"/>
<path d="M5.70681 7L3.85329 8.85352C2.94398 9.76282 2.94398 11.2372 3.85329 12.1465C4.7626 13.0558 6.23695 13.0558 7.14626 12.1465L8.99978 10.293L9.70681 11L7.85329 12.8535C6.55346 14.1533 4.44609 14.1533 3.14626 12.8535C1.84643 11.5537 1.84643 9.44632 3.14626 8.14648L4.99978 6.29297L5.70681 7Z"/>
</svg>
